<svg width="65" height="65" viewBox="0 0 65 65" fill="none" xmlns="http://www.w3.org/2000/svg">
<g clip-path="url(#clip0)">
<path d="M-0.000488281 32.5C-0.000488281 14.5508 14.5503 0 32.4995 0C50.4487 0 64.9995 14.5508 64.9995 32.5C64.9995 50.4492 50.4487 65 32.4995 65C14.5503 65 -0.000488281 50.4492 -0.000488281 32.5Z" fill="#005FF9"/>
<path fill-rule="evenodd" clip-rule="evenodd" d="M13.5411 32.4463C13.5411 22.0222 22.0456 13.5417 32.4992 13.5417C42.9528 13.5417 51.4574 22.0222 51.4574 32.4463C51.4574 33.923 51.3342 35.1185 51.0581 36.3184L51.054 36.3383C51.0533 36.3419 50.9163 36.895 50.8406 37.1363C50.372 38.6307 49.5238 39.8753 48.3872 40.7354C47.2851 41.5699 45.9184 42.0295 44.5394 42.0295C44.369 42.0295 44.1974 42.0226 44.0294 42.0092C42.071 41.8524 40.349 40.8247 39.2931 39.186C37.477 41.007 35.0675 42.0088 32.4992 42.0088C27.2116 42.0088 22.9098 37.719 22.9098 32.4463C22.9098 27.1736 27.2116 22.884 32.4992 22.884C37.7868 22.884 42.0886 27.1736 42.0886 32.4463V35.5288C42.0965 37.3274 43.3068 38.0626 44.3408 38.1457C45.3696 38.225 46.7388 37.6274 47.2157 35.6771C47.451 34.6074 47.5705 33.5202 47.5705 32.4463C47.5705 24.1594 40.8096 17.4175 32.4992 17.4175C24.1888 17.4175 17.428 24.1594 17.428 32.4463C17.428 40.7331 24.1888 47.4751 32.4992 47.4751C35.392 47.4751 38.2054 46.6513 40.6352 45.0926L40.6788 45.0646L43.2327 48.0256L43.1779 48.063C40.0217 50.2141 36.3291 51.351 32.4992 51.351C22.0456 51.351 13.5411 42.8704 13.5411 32.4463ZM32.4992 38.1329C35.6436 38.1329 38.2017 35.5819 38.2017 32.4463C38.2017 29.3107 35.6436 26.76 32.4992 26.76C29.3547 26.76 26.7967 29.3107 26.7967 32.4463C26.7967 35.5819 29.3547 38.1329 32.4992 38.1329Z" fill="#FF9E00"/>
</g>
<defs>
<clipPath id="clip0">
<rect width="65" height="65" fill="white" transform="translate(-0.000488281)"/>
</clipPath>
</defs>
</svg>
