<svg width="66" height="65" viewBox="0 0 66 65" fill="none" xmlns="http://www.w3.org/2000/svg">
<path d="M32.6587 0C14.7091 0 0.158691 14.5504 0.158691 32.5C0.158691 50.4496 14.7091 65 32.6587 65C50.6083 65 65.1587 50.4496 65.1587 32.5C65.1587 14.5504 50.6083 0 32.6587 0ZM50.1253 44.8332C48.7383 45.7007 43.1022 45.959 41.7377 44.9677C40.9893 44.4242 40.3049 43.744 39.6551 43.0963C39.2002 42.6436 38.6841 42.4239 38.2934 41.9325C37.9744 41.5304 37.7555 41.0559 37.4196 40.6588C36.8528 39.9927 35.9805 39.426 35.2905 40.2399C34.2513 41.4642 35.4539 43.8687 34.0682 44.7832C33.6036 45.0902 33.1346 45.1789 32.5538 45.1353L31.2674 45.1937C30.512 45.2085 29.315 45.2155 28.4554 45.0606C27.4964 44.8874 26.7043 44.3636 25.8369 43.9792C24.1908 43.2491 22.6228 42.2542 21.4294 40.8764C18.1815 37.1236 13.8191 31.9628 12.1244 27.2448C11.7759 26.2753 10.855 24.3553 11.728 23.5238C12.9151 22.6613 18.7413 22.4184 19.6502 23.7519C20.0192 24.294 20.2522 25.0868 20.5134 25.7015C20.8387 26.4675 21.0147 27.1892 21.5231 27.8672C21.973 28.4685 22.3046 29.0733 22.6524 29.7323C23.0432 30.4723 23.4121 31.182 23.8874 31.8628C24.2098 32.3261 25.0624 33.2477 25.6011 33.316C26.9163 33.4843 26.8346 30.2885 26.7367 29.5084C26.6431 28.7564 26.6192 27.9587 26.6438 27.1962C26.6649 26.5457 26.7234 25.629 26.3382 25.0981C25.7102 24.2321 24.3112 24.8798 24.2021 23.716C24.433 23.3858 24.3844 23.0929 25.927 22.5845C27.1423 22.1853 27.9273 22.198 28.7286 22.2621C30.362 22.393 32.094 21.9509 33.6711 22.4803C35.1779 22.988 34.9448 25.1291 34.8941 26.4119C34.8258 28.1629 34.899 29.8724 34.8941 31.6502C34.892 32.4592 34.8596 33.247 35.8467 33.1808C36.7719 33.1196 36.8662 32.3409 37.3077 31.6988C37.9216 30.8032 38.4856 29.8949 39.1108 29.0029C39.9536 27.7968 40.2085 26.4415 41.0019 25.2058C41.2857 24.7643 41.53 23.8237 41.9672 23.4745C42.2981 23.2091 42.9269 23.3478 43.3275 23.3478H44.2801C45.0088 23.3478 45.7523 23.3421 46.5015 23.3682C47.5801 23.4055 48.7883 23.1577 49.8578 23.309C54.473 23.9603 44.0569 33.8265 44.5991 35.5881C44.9736 36.8047 47.3499 38.1643 48.2074 39.1605C49.3459 40.4877 52.8508 43.1259 50.1253 44.8332Z" fill="#4C75A3"/>
</svg>
