<svg width="65" height="64" viewBox="0 0 65 64" fill="none" xmlns="http://www.w3.org/2000/svg">
<path d="M60.6399 16.1864C57.7337 11.2069 53.7916 7.26466 48.8126 4.35874C43.8328 1.45267 38.3964 0 32.4995 0C26.6033 0 21.1651 1.45311 16.1864 4.35874C11.2069 7.26451 7.26496 11.2069 4.35874 16.1864C1.45296 21.1657 0 26.6031 0 32.4986C0 39.5804 2.06613 45.9485 6.19943 51.6045C10.3323 57.261 15.6713 61.1751 22.2161 63.3472C22.9779 63.4886 23.5419 63.3892 23.9086 63.0514C24.2754 62.7132 24.4586 62.2896 24.4586 61.7824C24.4586 61.6977 24.4514 60.9364 24.4373 59.4973C24.4227 58.0583 24.4159 56.8029 24.4159 55.7318L23.4426 55.9001C22.822 56.0138 22.0391 56.062 21.094 56.0483C20.1492 56.0352 19.1685 55.9361 18.1531 55.7521C17.1372 55.5696 16.1923 55.1464 15.3177 54.4835C14.4435 53.8205 13.8229 52.9527 13.4561 51.8814L13.0329 50.9076C12.7509 50.2593 12.3068 49.5391 11.7002 48.7497C11.0935 47.9596 10.4801 47.4239 9.85948 47.1419L9.5632 46.9298C9.36577 46.7888 9.18258 46.6188 9.01317 46.4216C8.8439 46.2243 8.71718 46.0269 8.63255 45.8291C8.54777 45.6313 8.61802 45.469 8.84405 45.3417C9.07008 45.2143 9.47856 45.1525 10.0713 45.1525L10.9173 45.279C11.4816 45.3921 12.1795 45.7298 13.012 46.2944C13.8441 46.8585 14.5281 47.5919 15.0642 48.4942C15.7134 49.6512 16.4956 50.5328 17.4129 51.1394C18.3294 51.7461 19.2536 52.0489 20.1844 52.0489C21.1152 52.0489 21.9191 51.9783 22.5964 51.838C23.273 51.6969 23.9078 51.4848 24.5006 51.2029C24.7545 49.3119 25.4457 47.8593 26.5738 46.8438C24.966 46.6749 23.5204 46.4204 22.2364 46.082C20.9532 45.7432 19.6271 45.1933 18.259 44.4309C16.8903 43.6695 15.7548 42.724 14.8523 41.5961C13.9497 40.4676 13.2089 38.986 12.631 37.1527C12.0528 35.3187 11.7636 33.2031 11.7636 30.8052C11.7636 27.3911 12.8782 24.4857 15.1069 22.0876C14.0629 19.5208 14.1615 16.6433 15.4029 13.4555C16.2211 13.2013 17.4344 13.3921 19.0422 14.0266C20.6504 14.6614 21.8278 15.2052 22.5757 15.6561C23.3236 16.1068 23.9228 16.4887 24.3743 16.7985C26.9984 16.0653 29.7065 15.6986 32.4992 15.6986C35.2919 15.6986 38.0005 16.0653 40.6248 16.7985L42.2328 15.7834C43.3324 15.106 44.631 14.4853 46.1253 13.921C47.6205 13.3571 48.7638 13.2018 49.5541 13.4559C50.8231 16.6439 50.9362 19.5212 49.8919 22.088C52.1205 24.4862 53.2355 27.3922 53.2355 30.8057C53.2355 33.2035 52.9453 35.3258 52.368 37.1739C51.7899 39.0223 51.0428 40.5024 50.1262 41.6173C49.2086 42.732 48.0659 43.6701 46.6978 44.4313C45.3295 45.1931 44.003 45.743 42.7197 46.0818C41.4359 46.4207 39.9903 46.6753 38.3825 46.8446C39.8489 48.1136 40.5823 50.1167 40.5823 52.8531V61.7812C40.5823 62.2884 40.7587 62.7118 41.1117 63.0502C41.4643 63.388 42.0212 63.4875 42.783 63.3459C49.3287 61.1741 54.6677 57.2599 58.8004 51.6033C62.9327 45.9473 64.9996 39.5792 64.9996 32.4974C64.9981 26.6027 63.5444 21.1657 60.6399 16.1864Z" fill="black"/>
</svg>
