<svg width="63" height="64" viewBox="0 0 63 64" fill="none" xmlns="http://www.w3.org/2000/svg">
<path d="M3.29053 17.7005C5.2583 13.5999 8.03857 10.1341 11.5425 7.25229C16.2905 3.32944 21.7368 0.968111 27.8433 0.244478C35.0161 -0.606108 41.7573 0.75229 47.9907 4.48471C49.5396 5.41147 50.9868 6.46518 52.3706 7.60776C52.7134 7.88706 52.6753 8.05209 52.3833 8.33139C49.5522 11.1498 46.7212 13.9681 43.9155 16.8119C43.5854 17.1419 43.4077 17.1165 43.0522 16.8499C34.8257 10.515 22.8286 12.2289 16.6968 20.6078C15.6177 22.0804 14.7417 23.6673 14.1323 25.3939C14.0815 25.5462 13.98 25.6859 13.9038 25.8382C12.2661 24.5941 10.6157 23.3499 8.99072 22.0931C7.08643 20.6332 5.18213 19.1732 3.29053 17.7005Z" fill="#E94335"/>
<path d="M13.9038 37.7465C14.4497 38.9525 14.9067 40.2094 15.5923 41.3392C18.4741 46.0619 22.5874 49.0961 28.0083 50.1752C32.896 51.1527 37.5933 50.4926 41.9731 48.0424C42.1255 47.9662 42.2778 47.89 42.4175 47.8138C42.4937 47.89 42.5571 47.9789 42.6333 48.0424C45.9087 50.5814 49.1968 53.1205 52.4722 55.6595C50.8979 57.2211 49.1079 58.4779 47.2036 59.5697C41.6812 62.7181 35.7017 63.9877 29.4048 63.5053C21.5591 62.8959 14.7925 59.7982 9.20654 54.2123C6.75635 51.7621 4.73779 48.9945 3.27783 45.8334C4.63623 44.7924 5.99463 43.764 7.35303 42.723C9.53662 41.0599 11.7202 39.4095 13.9038 37.7465Z" fill="#34A853"/>
<path d="M52.4849 55.6595C49.2095 53.1205 45.9214 50.5814 42.646 48.0424C42.5698 47.9789 42.4936 47.89 42.4302 47.8138C43.5601 46.9379 44.7153 46.0873 45.6421 44.9701C47.1909 43.1166 48.2192 41.0219 48.7524 38.6732C48.8159 38.3812 48.7651 38.2797 48.4731 38.2924C48.3208 38.3051 48.1811 38.2924 48.0288 38.2924C42.8491 38.2924 37.6567 38.2797 32.477 38.3051C31.9057 38.3051 31.7788 38.1527 31.7915 37.6068C31.8169 33.9252 31.8169 30.2435 31.7915 26.5619C31.7915 26.0922 31.9184 25.9652 32.3882 25.9652C41.8843 25.9779 51.3804 25.9779 60.8892 25.9652C61.2954 25.9652 61.4605 26.0668 61.562 26.4984C62.3364 29.9896 62.2856 33.4935 61.8159 37.0228C61.4351 39.8412 60.7495 42.5707 59.6958 45.2113C58.1343 49.1088 55.8364 52.5111 52.8149 55.431C52.7007 55.5199 52.5864 55.5834 52.4849 55.6595Z" fill="#4285F3"/>
<path d="M13.9038 37.7465C11.7202 39.4095 9.53663 41.0599 7.35304 42.723C5.99464 43.7513 4.63624 44.7924 3.27784 45.8334C2.22413 43.8783 1.53858 41.809 0.979989 39.6761C-0.0864175 35.5502 -0.251457 31.3607 0.332528 27.1586C0.789559 23.8578 1.74171 20.684 3.27784 17.7133C5.18214 19.1732 7.07374 20.6459 8.97803 22.1058C10.6157 23.3627 12.2534 24.6068 13.8911 25.851C13.6118 27.2094 13.2183 28.5424 13.0913 29.9388C12.8628 32.4779 13.104 34.9535 13.8276 37.391C13.8784 37.4926 13.8911 37.6195 13.9038 37.7465Z" fill="#FABB06"/>
</svg>
